<svg id="Camada_1" data-name="Camada 1" xmlns="http://www.w3.org/2000/svg" xmlns:xlink="http://www.w3.org/1999/xlink" viewBox="0 0 62.23 62.23"><defs><style>.cls-1{fill:none;stroke:#1e1e1c;stroke-miterlimit:10;stroke-width:0.25px;}.cls-2{fill:url(#Gradiente_sem_nome_7);}.cls-3{fill:url(#Gradiente_sem_nome_12);}.cls-4{opacity:0.3;}.cls-5{fill:url(#Gradiente_sem_nome_8);}</style><linearGradient id="Gradiente_sem_nome_7" x1="41.93" y1="8.62" x2="41.93" y2="70.85" gradientUnits="userSpaceOnUse"><stop offset="0" stop-color="#fff"/><stop offset="0.41" stop-color="#fdfdfd"/><stop offset="0.56" stop-color="#f6f6f6"/><stop offset="0.67" stop-color="#ebebeb"/><stop offset="0.75" stop-color="#dadada"/><stop offset="0.83" stop-color="#c4c4c4"/><stop offset="0.89" stop-color="#a8a8a8"/><stop offset="0.95" stop-color="#898989"/><stop offset="1" stop-color="#666"/></linearGradient><linearGradient id="Gradiente_sem_nome_12" x1="9.31" y1="41.57" x2="51.81" y2="41.57" gradientUnits="userSpaceOnUse"><stop offset="0" stop-color="#ccc"/><stop offset="0.11" stop-color="#c8c8c8"/><stop offset="0.23" stop-color="#bcbcbc"/><stop offset="0.34" stop-color="#a7a7a7"/><stop offset="0.46" stop-color="#8a8a8a"/><stop offset="0.57" stop-color="#656565"/><stop offset="0.69" stop-color="#393939"/><stop offset="0.7" stop-color="#333"/></linearGradient><linearGradient id="Gradiente_sem_nome_8" x1="9.31" y1="20.8" x2="51.41" y2="20.8" gradientUnits="userSpaceOnUse"><stop offset="0" stop-color="#ccc"/><stop offset="0.12" stop-color="#c8c8c8"/><stop offset="0.24" stop-color="#bcbcbc"/><stop offset="0.36" stop-color="#a7a7a7"/><stop offset="0.48" stop-color="#8a8a8a"/><stop offset="0.6" stop-color="#656565"/><stop offset="0.73" stop-color="#393939"/><stop offset="0.74" stop-color="#333"/></linearGradient></defs><path class="cls-1" d="M11.31,22.07" transform="translate(-10.82 -8.62)"/><path class="cls-1" d="M11.31,26.49" transform="translate(-10.82 -8.62)"/><path class="cls-1" d="M11.31,50" transform="translate(-10.82 -8.62)"/><path class="cls-1" d="M11.31,54.83" transform="translate(-10.82 -8.62)"/><path class="cls-1" d="M11.31,22.07" transform="translate(-10.82 -8.62)"/><path class="cls-1" d="M11.31,27.11" transform="translate(-10.82 -8.62)"/><path class="cls-1" d="M11.31,50" transform="translate(-10.82 -8.62)"/><path class="cls-1" d="M11.31,54.83" transform="translate(-10.82 -8.62)"/><path class="cls-1" d="M10.76,8.77" transform="translate(-10.82 -8.62)"/><path class="cls-1" d="M10.76,71" transform="translate(-10.82 -8.62)"/><path class="cls-1" d="M73,71" transform="translate(-10.82 -8.62)"/><path class="cls-1" d="M73,8.77" transform="translate(-10.82 -8.62)"/><path class="cls-1" d="M30,51.29" transform="translate(-10.82 -8.62)"/><path class="cls-1" d="M53.51,51.29" transform="translate(-10.82 -8.62)"/><path class="cls-1" d="M53.51,27.77" transform="translate(-10.82 -8.62)"/><path class="cls-1" d="M30,27.77" transform="translate(-10.82 -8.62)"/><path class="cls-1" d="M73,23.35" transform="translate(-10.82 -8.62)"/><path class="cls-1" d="M10.76,23.35" transform="translate(-10.82 -8.62)"/><path class="cls-1" d="M73,27.77" transform="translate(-10.82 -8.62)"/><path class="cls-1" d="M10.76,27.77" transform="translate(-10.82 -8.62)"/><path class="cls-1" d="M73,51.29" transform="translate(-10.82 -8.62)"/><path class="cls-1" d="M10.76,51.29" transform="translate(-10.82 -8.62)"/><path class="cls-1" d="M73,56.12" transform="translate(-10.82 -8.62)"/><path class="cls-1" d="M10.76,56.12" transform="translate(-10.82 -8.62)"/><path class="cls-1" d="M25.07,8.77" transform="translate(-10.82 -8.62)"/><path class="cls-1" d="M25.07,23.35" transform="translate(-10.82 -8.62)"/><path class="cls-1" d="M25.07,71" transform="translate(-10.82 -8.62)"/><path class="cls-1" d="M25.07,56.12" transform="translate(-10.82 -8.62)"/><path class="cls-1" d="M30,71" transform="translate(-10.82 -8.62)"/><path class="cls-1" d="M30,50.89" transform="translate(-10.82 -8.62)"/><path class="cls-1" d="M30,8.77" transform="translate(-10.82 -8.62)"/><path class="cls-1" d="M30,27.77" transform="translate(-10.82 -8.62)"/><path class="cls-1" d="M53.51,8.77" transform="translate(-10.82 -8.62)"/><path class="cls-1" d="M53.51,27.77" transform="translate(-10.82 -8.62)"/><path class="cls-1" d="M58.64,8.77" transform="translate(-10.82 -8.62)"/><path class="cls-1" d="M58.64,23.35" transform="translate(-10.82 -8.62)"/><path class="cls-1" d="M58.64,71" transform="translate(-10.82 -8.62)"/><path class="cls-1" d="M58.64,56.12" transform="translate(-10.82 -8.62)"/><path class="cls-1" d="M53.51,71" transform="translate(-10.82 -8.62)"/><path class="cls-1" d="M53.51,51.29" transform="translate(-10.82 -8.62)"/><path class="cls-1" d="M73,71" transform="translate(-10.82 -8.62)"/><path class="cls-1" d="M10.76,8.77" transform="translate(-10.82 -8.62)"/><path class="cls-1" d="M10.76,71" transform="translate(-10.82 -8.62)"/><path class="cls-1" d="M73,8.77" transform="translate(-10.82 -8.62)"/><polygon class="cls-1" points="42.69 42.91 19.41 42.91 19.17 19.39 42.93 19.39 42.69 42.91"/><path class="cls-1" d="M30,8.77" transform="translate(-10.82 -8.62)"/><path class="cls-1" d="M30,28" transform="translate(-10.82 -8.62)"/><path class="cls-1" d="M53.51,71" transform="translate(-10.82 -8.62)"/><path class="cls-1" d="M53.51,51.29" transform="translate(-10.82 -8.62)"/><path class="cls-1" d="M53.75,8.77" transform="translate(-10.82 -8.62)"/><path class="cls-1" d="M53.75,28" transform="translate(-10.82 -8.62)"/><path class="cls-1" d="M30,71" transform="translate(-10.82 -8.62)"/><path class="cls-1" d="M30.23,51.53" transform="translate(-10.82 -8.62)"/><path class="cls-1" d="M53.75,39.77A11.58,11.58,0,0,1,42.14,51.14c-6.29,0-12-5.08-12-11.37s5.75-11.37,12-11.37A11.58,11.58,0,0,1,53.75,39.77Z" transform="translate(-10.82 -8.62)"/><path class="cls-1" d="M68.9,39.88A27.06,27.06,0,0,1,42,67.06h-.08A27.09,27.09,0,0,1,14.92,39.77,26.58,26.58,0,0,1,41.87,13.08,26.75,26.75,0,0,1,68.9,39.88Z" transform="translate(-10.82 -8.62)"/><path class="cls-1" d="M58.32,39.73c-.15,9.43-7.26,16.61-16.38,16.39C32.46,55.89,25.6,49,25.55,39.73c0-9.71,6.91-16.57,16.39-16.38C51.21,23.54,58.47,30.25,58.32,39.73Z" transform="translate(-10.82 -8.62)"/><path class="cls-1" d="M73,23.35" transform="translate(-10.82 -8.62)"/><path class="cls-1" d="M10.76,23.35" transform="translate(-10.82 -8.62)"/><path class="cls-1" d="M10.76,28.4" transform="translate(-10.82 -8.62)"/><path class="cls-1" d="M30,28" transform="translate(-10.82 -8.62)"/><path class="cls-1" d="M73,27.77" transform="translate(-10.82 -8.62)"/><path class="cls-1" d="M53.75,28" transform="translate(-10.82 -8.62)"/><path class="cls-1" d="M73,51.29" transform="translate(-10.82 -8.62)"/><path class="cls-1" d="M53.51,51.29" transform="translate(-10.82 -8.62)"/><path class="cls-1" d="M10.76,51.29" transform="translate(-10.82 -8.62)"/><path class="cls-1" d="M30,51.29" transform="translate(-10.82 -8.62)"/><path class="cls-1" d="M73,56.12" transform="translate(-10.82 -8.62)"/><path class="cls-1" d="M10.76,56.12" transform="translate(-10.82 -8.62)"/><path class="cls-1" d="M25.55,8.77" transform="translate(-10.82 -8.62)"/><path class="cls-1" d="M25.55,71" transform="translate(-10.82 -8.62)"/><path class="cls-1" d="M58.32,71" transform="translate(-10.82 -8.62)"/><path class="cls-1" d="M58.64,8.77" transform="translate(-10.82 -8.62)"/><path class="cls-2" d="M59.08,70.85H25.13A14.08,14.08,0,0,1,10.82,57V23A14.5,14.5,0,0,1,25.13,8.62h34A14.18,14.18,0,0,1,73.05,23V57A13.79,13.79,0,0,1,59.33,70.85Z" transform="translate(-10.82 -8.62)"/><path class="cls-1" d="M73,8.77" transform="translate(-10.82 -8.62)"/><polygon class="cls-3" points="22.01 35.65 22.01 40.48 51.81 40.48 51.81 43.11 22.01 43.12 21.98 47.49 9.31 42.24 22.01 35.65"/><polygon class="cls-4" points="22.01 35.65 22.01 40.48 51.81 40.48 51.81 43.11 22.01 43.12 21.98 47.49 9.31 42.24 22.01 35.65"/><polygon class="cls-5" points="40.24 14.88 40.24 19.71 9.31 19.7 9.31 22.34 40.24 22.34 40.27 26.73 51.41 20.8 40.24 14.88"/><polygon class="cls-4" points="40.24 14.88 40.24 19.71 9.31 19.7 9.31 22.34 40.24 22.34 40.27 26.73 51.41 20.8 40.24 14.88"/></svg>