<svg id="Camada_1" data-name="Camada 1" xmlns="http://www.w3.org/2000/svg" viewBox="0 0 20.65 20.59"><defs><style>.cls-1{fill:#7bc299;}</style></defs><path class="cls-1" d="M12.44,22.29l9.88-10v-.67L15.78,5l-.32-.33h-.67L14.46,5,11.05,8.44V9.76l3.71,3.76v.66L9.59,19.44v.66l2.18,2.2h.66" transform="translate(-1.68 -1.7)"/><polygon class="cls-1" points="12.52 2.36 12.52 1.69 10.88 0.02 9.57 0 0 9.7 0 10.37 6.68 17.13 7.32 17.15 11.59 12.81 11.59 11.47 7.89 7.73 7.89 7.06 12.52 2.36"/><path class="cls-1" d="M14.2,3.69,12.41,1.87h-1L2.16,11.23l-.33.34v.34L8.5,18.67l.18.18-.33,0L1.68,12.07V11.4l9.56-9.7,1.32,0L14.2,3.4Z" transform="translate(-1.68 -1.7)"/><path class="cls-1" d="M12.43,22.3l9.89-10v-.67l-6.86-7h-.32l7,7.11v.36l-9.88,10h-.36L9.59,19.78v.32l2.18,2.2h.66" transform="translate(-1.68 -1.7)"/></svg>