<?xml version="1.0" encoding="utf-8"?>
<!-- Generator: Adobe Illustrator 24.1.1, SVG Export Plug-In . SVG Version: 6.00 Build 0)  -->
<svg version="1.1" id="Camada_1" xmlns="http://www.w3.org/2000/svg" xmlns:xlink="http://www.w3.org/1999/xlink" x="0px" y="0px"
	 viewBox="0 0 1920 1920" style="enable-background:new 0 0 1920 1920;" xml:space="preserve">
<style type="text/css">
	.st0{fill:#7BC299;}
</style>
<g>
	<path class="st0" d="M1005.09,1888.59l895.93-907.86v-60.35l-593.09-601.95l-29.68-29.59l-59.9-0.45
		c-30.13,30.04-30.13,30.04-30.13,30.04C879.06,633,879.06,633,879.06,633v119.72l336.58,340.66v60.35l-468.76,476.38v60.35
		l197.07,198.84h60.35"/>
	<polygon class="st0" points="1164.01,236.1 1164.01,175.75 1015.6,24.44 896.44,22.28 28.91,901.82 28.91,962.17 634.27,1575.44 
		692.25,1577.2 1079.53,1183.41 1079.53,1062.69 744.47,723.04 744.47,662.69 	"/>
</g>
<path class="st0" d="M1164.01,202.04l-161.97-164.4l-91.58-0.96C72.49,886.13,72.49,886.13,72.49,886.13l-29.91,30.32l1.22,30.83
	l603.84,613.27c16.42,16.65,16.42,16.65,16.42,16.65l-29.8-1.75C28.91,962.17,28.91,962.17,28.91,962.17v-60.35L896.44,22.28
	l119.16,2.16l148.41,151.31V202.04z"/>
<path class="st0" d="M1004.3,1889.3l896.72-908.57v-60.35l-622.77-631.55l-28.46-0.45l636.08,645.13v32.05l-895.66,909.63h-32.17
	l-211.16-214.06c0,29.32,0,29.32,0,29.32l197.07,198.84C1004.3,1889.3,1004.3,1889.3,1004.3,1889.3"/>
</svg>
